<svg xmlns="http://www.w3.org/2000/svg" viewBox="0 0 128 128" role="img" aria-label="Imperio Español">
  <rect width="128" height="128" rx="28" fill="#111111"/>
  <rect x="12" y="20" width="104" height="88" rx="18" fill="#c1121f"/>
  <rect x="12" y="42" width="104" height="44" fill="#f1bf00"/>
  <path d="M30 32h46c13 0 22 9 22 22s-9 22-22 22H30z" fill="#ffffff" opacity=".2"/>
  <path d="M39 52h10v35H39zm17 0h10v35H56zm18 0h20v8H84v6h9v8h-9v13H74z" fill="#111111"/>
  <path d="M34 38h36l-5-9 10 7 10-7-5 9h14v7H34z" fill="#111111"/>
  <rect x="12" y="20" width="104" height="88" rx="18" fill="none" stroke="#ffffff" stroke-opacity=".58" stroke-width="4"/>
</svg>
